<?xml version="1.0" standalone="no"?>
<!DOCTYPE svg PUBLIC "-//W3C//DTD SVG 20010904//EN"
 "http://www.w3.org/TR/2001/REC-SVG-20010904/DTD/svg10.dtd">
<svg version="1.0" xmlns="http://www.w3.org/2000/svg"
 width="609.000000pt" height="166.000000pt" viewBox="0 0 609.000000 166.000000"
 preserveAspectRatio="xMidYMid meet">
<metadata>
Created by potrace 1.13, written by Peter Selinger 2001-2015
</metadata>
<g transform="translate(0.000000,166.000000) scale(0.100000,-0.100000)"
fill="#000000" stroke="none">
<path d="M5268 1504 c-39 -96 -200 -450 -207 -457 -5 -5 -23 15 -41 44 -56 92
-173 193 -274 237 -64 28 -170 42 -322 42 l-154 0 -2 -342 -3 -341 -196 179
c-107 98 -253 232 -325 297 l-129 119 -5 -168 -5 -169 -37 51 c-107 146 -301
224 -484 194 -93 -15 -132 -30 -209 -82 -109 -73 -193 -196 -216 -316 -15 -83
-7 -211 19 -284 55 -156 214 -293 382 -329 74 -16 202 -6 272 21 85 32 170 93
225 160 l48 60 3 -120 3 -120 109 0 110 0 2 300 3 300 215 -195 215 -195 5
-108 5 -107 150 1 c83 1 238 2 345 2 l195 1 45 101 45 100 233 -2 233 -3 43
-95 43 -95 147 -3 146 -3 -14 33 c-8 18 -49 110 -91 203 -42 94 -115 256 -162
360 -47 105 -116 258 -153 340 -95 212 -131 291 -165 364 l-31 64 -16 -39z
m-602 -405 c62 -29 141 -109 174 -174 22 -44 25 -63 25 -155 0 -100 -1 -108
-33 -161 -36 -64 -102 -128 -159 -157 -47 -24 -138 -46 -153 -37 -7 4 -10 125
-10 362 l0 356 53 -6 c29 -3 76 -16 103 -28z m-1368 -138 c56 -29 120 -95 146
-151 33 -71 30 -188 -7 -262 -50 -103 -140 -159 -262 -166 -69 -4 -87 -1 -135
21 -202 90 -249 346 -91 501 67 66 125 87 226 83 58 -3 92 -10 123 -26z m2045
-191 c25 -57 44 -107 42 -110 -6 -10 -200 -6 -199 3 5 29 99 226 105 220 4 -5
27 -55 52 -113z"/>
<path d="M2133 873 c-38 -87 -110 -247 -159 -355 l-88 -198 -113 0 -113 0 -2
293 -3 292 -72 3 -73 3 0 -371 0 -370 248 0 249 0 28 65 27 65 150 0 149 0 30
-65 29 -65 90 0 c50 0 90 4 90 8 0 7 -323 726 -365 815 -11 20 -22 37 -25 37
-4 0 -38 -71 -77 -157z"/>
<path d="M1043 927 c-12 -6 -64 -36 -115 -66 -51 -30 -113 -65 -138 -79 -25
-14 -164 -92 -308 -174 -201 -112 -269 -147 -287 -142 -18 4 -27 0 -41 -20
-50 -78 44 -292 103 -234 11 11 33 14 91 10 70 -4 79 -7 100 -33 78 -97 237
-113 317 -33 l33 33 159 -14 c231 -21 283 -20 324 8 19 12 45 44 59 72 23 46
25 60 24 185 0 120 -3 145 -28 220 -69 208 -194 323 -293 267z m100 -117 c100
-111 155 -362 112 -508 -18 -61 -28 -69 -60 -48 -67 44 -146 227 -160 372 -10
105 20 234 54 234 5 0 29 -22 54 -50z"/>
</g>
</svg>
